<svg width="280" height="239" fill="none" xmlns="http://www.w3.org/2000/svg"><g clip-path="url(#clip0)"><path d="M58.8314 30.3872c9.2151.6195 13.0734-5.6692 17.3978-13.7513C88.0815-5.48666 114.482-3.357 123.337 10.2646c6.272 9.6513 19.799 7.6632 30.737 3.8876 10.767-3.7165 29.115-7.28564 43.734-2.8434 12.766 3.8817 17.999 17.875 29.639 17.0137 25.386-1.876 38.182 23.1785 33.581 34.11-3.003 7.1323-4.49 15.1141-2.053 22.4528 2.684 8.0821 8.825 14.4829 13.787 21.4327 4.962 6.949 8.956 15.639 6.49 23.792-2.113 6.979-8.407 11.804-12.313 17.969-12.135 19.155-.13 48.516-16.3 64.486-11.575 11.427-30.442 8.79-46.637 10.973-13.504 1.817-26.211 7.492-39.657 9.71-27.226 4.501-54.718-5.41-82.3165-5.693-9.7225-.1-19.6279.985-29.0436-1.41-12.5661-3.197-23.2562-12.866-27.616-24.966-6.0175-16.695-.3185-36.021-7.109-52.421C12.7261 135.396-.813408 124.523.0420316 110.105.572994 101.126 6.70266 93.6223 10.9209 85.6582c6.2653-11.8282-2.0354-58.61 47.9105-55.271zM139.172 8.71305c-2.425 0-4.384 1.50435-4.384 3.35675 0 1.8524 1.971 3.1974 4.384 3.3567 7.876.5191 7.876-2.6606 7.876-4.5189 0-2.96146-5.457-2.19455-7.876-2.19455zm79.98 14.32365c2.107 1.7403 4.791 2.7785 7.528 2.9201.732.0354 1.528-.0118 2.089-.4719.696-.5723.773-1.7462.153-2.4011-.389-.4129-.956-.5958-1.486-.8141-.903-.3657-1.782-.8908-2.295-1.7108-.148-.2359-.278-.5132-.52-.6489-1.516-.8554-8.241.8377-5.469 3.1267zm13.416 2.9673c.696.2419 1.451.0177 2.153-.2065.449-.1474.998-.466.88-.9144-.059-.2182-.26-.3598-.461-.466-.92-.4896-2.112-.8554-3.032-.2242-.926.6254-.23 1.5751.46 1.8111zm32.029 63.2823c.118 1.0441.767 1.9467 1.386 2.7962 1.204 1.6401 2.425 3.3037 4.012 4.5838.673.5428 1.451 1.0265 2.319 1.056.79.0295 1.545-.3303 2.182-.7905 1.558-1.115 2.608-2.9025 2.826-4.7962.295-2.5957-.914-5.1265-2.318-7.3387-.873-1.3687-1.888-2.7373-3.339-3.4689-2.443-1.2329-4.053-.1592-4.738 2.0058-.619 1.994-2.584 3.7343-2.33 5.9525zM4.79119 149.755c-1.2861 1.132-.12389 4.448.25369 6.636.11209.655.26548 1.334.67845 1.859.56636.713 1.51029 1.008 2.38933 1.268 1.56339.454 3.46304.838 4.66064-.26.885-.814 1.0148-2.147 1.0089-3.345 0-1.097-.059-2.188-.177-3.28-.0531-.525-.1298-1.061-.413-1.51-.3599-.572-.997-.902-1.6165-1.168-2.23593-.944-5.4984-1.327-6.78451-.2zM83.3854 232.8c-.761.153-1.6696.483-1.7817 1.244-.0884.632.4366 1.168.9499 1.546 4.1946 3.132 9.8464 3.333 15.097 3.404.6136.006 1.2507.012 1.8112-.224 1.1212-.472 1.6632-1.953 1.1382-3.044-.188-.402-.489-.738-.8079-1.045-4.2123-4.111-11.1502-2.932-16.4067-1.881zm104.8116-2.118c-4.737 3.463.053 6.56 6.036 4.265 3.221-1.239 6.312-2.46 9.616-3.286 1.068-.266 7.516-1.664 7.516-3.109 0-3.84-7.262-2.932-11.835-2.295-3.687.513-7.427 1.569-11.333 4.425z" fill="#ECF3FF"/><path d="M99.1778 220.671c12.5932 0 22.8022-.954 22.8022-2.13s-10.209-2.13-22.8022-2.13c-12.5931 0-22.8018.954-22.8018 2.13s10.2087 2.13 22.8018 2.13zM216.314 220.671c12.593 0 22.802-.954 22.802-2.13s-10.209-2.13-22.802-2.13-22.802.954-22.802 2.13 10.209 2.13 22.802 2.13z" fill="#C8DBFB"/><path d="M264.49 68.5682c-.065-.3953-.136-.7846-.212-1.1622" stroke="#C8DBFB" stroke-linecap="round" stroke-linejoin="round"/><path d="M263.717 65.1229c-4.065-13.8516-17.038-12.5125-28.76-12.4889-12.619.0236-207.9664.4307-207.9664.4307-19.63378.0413-17.72822 28.3817-2.3598 28.3463 8.8376-.0177 12.2003 16.5771-3.0796 16.6066-9.1679.0177-9.4629 11.6394-3.2979 13.9694" stroke="#C8DBFB" stroke-linecap="round" stroke-linejoin="round" stroke-dasharray="3.99 3.99"/><path d="M19.3861 112.288c.3717.065.767.1 1.1799.094" stroke="#C8DBFB" stroke-linecap="round" stroke-linejoin="round"/><path d="M22.9731 111.846c.2596 1.539-.7729 2.997-2.3127 3.262-1.5397.26-2.9969-.773-3.2624-2.312-.2596-1.54.7728-2.997 2.3126-3.263 1.5398-.259 3.0029.779 3.2625 2.313zM267.269 69.8424c-.277 1.5338-1.752 2.5544-3.286 2.2712-1.534-.2772-2.555-1.7521-2.272-3.2859.278-1.5338 1.753-2.5544 3.286-2.2712 1.534.2772 2.549 1.7462 2.272 3.2859zM51.7747 91.2098c-.4071 2.2948-1.003 4.5366-1.7286 6.7488-1.5634 4.7724-3.7226 9.3684-5.9055 13.9044-1.1386 2.372-5.758 7.858-8.2358 8.902.2891-6.188.3127-13.415-.4071-19.662-.6902-6.0173 1.4749-10.5775-.8849-16.1583-.3009-.7138-.6136-1.4276-.9262-2.1415-1.1741-2.6547-2.3363-5.3212-2.702-8.1823-.472-3.6281.6548-7.7636 3.7934-9.6514 2.2595-1.3568 5.2034-1.286 7.6163-.2182 2.413 1.0677 4.348 3.0204 5.817 5.2091 4.112 6.1117 4.8554 14.005 3.5634 21.2494z" fill="#5193F4"/><path d="M40.8014 71.1698c4.6194 6.5247 5.0206 14.123 5.4218 22.1048.4011 7.9814-1.5162 16.0694-5.4631 23.0194" stroke="#0B43A4" stroke-miterlimit="10" stroke-linecap="round" stroke-linejoin="round"/><path d="M40.6067 191.504c-3.2388-2.861-6.5131-5.763-8.9083-9.362-2.0826-3.132-3.4277-6.69-5.2447-9.987-1.1741-2.13-2.5664-4.189-3.2448-6.525-.6785-2.336-.5192-5.109 1.1445-6.885 1.7345-1.858 4.7138-2.141 7.0677-1.185 2.3539.955 4.1533 2.938 5.522 5.073 1.823 2.838 3.0442 6.065 3.5516 9.398.4601 3.02.3421 6.111.8141 9.132.4366 2.814 1.3864 5.516 2.5781 8.094 1.0796 2.336 3.8229 6.507 4.5191 8.902-1.941.962-6.4188-5.433-7.7993-6.655z" fill="#00AD9F"/><path d="M29.2854 161.831c3.0796 1.345 4.3008 5.02 4.9439 8.318.7315 3.752.5663 7.816 2.289 11.232 3.2448 6.436 7.463 13.757 10.6015 15.946" stroke="#00AD9F" stroke-miterlimit="10" stroke-linecap="round" stroke-linejoin="round"/><path d="M24.6721 182.703c-2.6843-1.062-6.2772-1.499-7.9999.82-1.4395 1.94-.6961 4.695.3009 6.896.8437 1.858 1.9115 3.752 3.6814 4.761 1.2094.69 2.6312.896 4.0176 1.062 3.8642.46 7.752.684 11.6457.672 4.5073-.012 9.9703 1.829 13.7048 4.643-4.7905-8.896-16.3065-15.285-25.3505-18.854z" fill="#0056EC"/><path d="M19.9583 188.484c3.4217.147 6.873.383 10.1531 1.357 3.3569.991 16.2711 6.92 18.2887 9.439" stroke="#0B43A4" stroke-miterlimit="10" stroke-linecap="round" stroke-linejoin="round"/><path d="M53.9811 164.438c-3.4984-5.474-9.4806-9.297-15.917-10.164-4.7551-.637-9.6458.247-14.3419-.738-4.9321-1.032-9.3803-4.212-11.9526-8.548-2.57217-4.336-3.24472-9.751-1.79932-14.583 1.10322-3.669 3.62232-7.15 7.26832-8.324 1.9881-.637 4.1592-.549 6.1886-.065 1.8761.448 3.6165 1.233 5.2211 2.254 3.6696 2.324 6.6371 5.899 8.8671 9.698 2.0236 3.451 7.0146 8.826 10.4128 12.324 1.994 2.041 3.4394 3.439 3.4394 3.439 2.3245 2.903 1.233 11.256 2.6135 14.707z" fill="#52D2BC"/><path d="M16.1708 132.694c11.4275 5.156 23.8874 11.917 31.9934 21.485" stroke="#00AD9F" stroke-miterlimit="10" stroke-linecap="round" stroke-linejoin="round"/><path opacity=".2" d="M49.2614 152.893s-17.0262-13.804-20.6191-28.617c3.6696 2.324 6.6371 5.899 8.8671 9.698 2.0236 3.451 7.0146 8.826 10.4128 12.324.4011 1.852.8436 4.029 1.3392 6.595zM50.0461 97.9586c-1.5634 4.7724-3.7227 9.3684-5.9055 13.9044-1.1386 2.372-5.758 7.858-8.2358 8.902.289-6.188.3126-13.415-.4071-19.662-.6903-6.0174 1.4749-10.5775-.8849-16.1583-.3009-.7138-.6136-1.4277-.9263-2.1415.2183.0708.4307.1475.6372.236 3.8819 1.6636 5.6754 5.7696 6.0058 9.7575.2772 3.2918-.3186 6.5896-.7611 9.8633-.2065 1.511-.3717 3.056-.0472 4.537.0059.018.0118.029.0118.047.4071 1.764 2.9852 1.664 3.3156-.124l1.0324-5.48c.3068-1.6402.6431-3.3569 1.9882-4.5014.5309-.4542 1.2153-.7374 1.9114-.7138 1.1091.0413 1.8053.6902 2.2655 1.5338z" fill="#5275A0"/><path d="M49.2614 149.436c-2.6902-14.046-4.1061-16.211-2.9203-19.733 1.5103-4.489.6608-8.997 2.0826-13.515 1.4218-4.513 2.3893-9.369 1.2448-13.964-.3599-1.451-1.0973-3.0324-2.8436-3.0973-.7021-.0236-1.3805.2595-1.9115.7138-1.3451 1.1445-1.6814 2.8615-1.9881 4.5015l-1.0266 5.48c-.3362 1.782-2.9085 1.888-3.3155.118-.0059-.018-.0059-.029-.0118-.047-.3304-1.481-.1593-3.026.0413-4.537.4424-3.28 1.0383-6.5715.7669-9.8692-.3304-3.988-2.1238-8.0939-6.0117-9.7516-1.3746-.59-2.9321-.7198-4.3833-.3481-4.0531 1.0383-5.1032 5.0026-4.5073 8.383.4188 2.3833 1.5339 4.5719 2.5427 6.7669 2.466 5.362.6548 10.282.997 16.176.944 16.276 21.2444 32.723 21.2444 32.723z" fill="#7EE8D4"/><path d="M31.1733 89.6465c2 9.9935 4.0236 20.0575 7.9055 29.4845 1.1386 2.761 1.6932 6.401 8.283 13.917" stroke="#00AD9F" stroke-miterlimit="10" stroke-linecap="round" stroke-linejoin="round"/><path d="M109.195 92.2068c-2.07-2.3657-3.982-4.7726-5.994-7.091-1.304-1.5044-2.649-2.9733-4.1117-4.3655-.7257-.6962-1.4749-1.3687-2.2655-2.0235-4.6724-3.8582-9.8876-7.0615-15.4628-9.4449-3.3627-1.4394-6.9143-2.6252-9.7697-4.92-2.8554-2.289-4.9084-6.0527-3.9586-9.5864.6903-2.5486 2.8554-4.5307 5.3391-5.4392 2.4779-.9026 5.2271-.8318 7.8052-.2773 7.1975 1.5515 13.2092 6.7252 17.2976 12.8429.0708.1061.1474.2182.2182.3303 2.9972 4.572 5.0912 9.6572 6.9142 14.8369.584 1.6636 1.139 3.339 1.687 5.0085.826 2.4954 3.363 7.6574 2.301 10.1292z" fill="#5193F4"/><path d="M76.2698 55.0704c7.8523 1.4985 13.4097 6.6958 19.2326 12.1704 5.8226 5.4746 10.0466 12.6305 12.0236 20.3763" stroke="#0B43A4" stroke-miterlimit="10" stroke-linecap="round" stroke-linejoin="round"/><path opacity=".2" d="M103.201 85.1157c-.065.8141-.041 1.6282.112 2.4542-1.964-.4484-3.3269-3.4984-4.2236-6.8197-.8791-3.2269-1.3156-6.7193-1.4513-8.3299-.2655-3.398-.0472-6.8432.6548-10.1881 2.9971 4.572 5.0911 9.6572 6.9141 14.8368-.625 1.8583-1.162 3.7402-1.604 5.6398-.189.8082-.337 1.6046-.402 2.4069z" fill="#5275A0"/><path d="M116.824 56.7694c-.667 2.9437-2.443 5.4864-4.012 8.0703-.826 1.3568-1.599 2.755-2.319 4.1708-2.306 4.5307-4.065 9.3387-5.227 14.2882-.383 1.6223-.596 3.2151-.289 4.8611-3.87-.8849-5.4157-11.8872-5.6752-15.1554-.4661-5.8876.5368-11.9226 2.9612-17.3146 1.056-2.3656 2.425-4.69 4.531-6.2061 2.1-1.5161 5.074-2.0471 7.298-.7256 1.339.7964 2.201 2.1178 2.619 3.6222.413 1.404.431 2.9673.113 4.3891z" fill="#52D2BC"/><path d="M103.502 84.9151c-2.407-6.0468-.944-18.8425 2.915-26.8833 1.162-2.4246 2.82-4.6959 5.138-6.0468" stroke="#00AD9F" stroke-miterlimit="10" stroke-linecap="round" stroke-linejoin="round"/><path opacity=".2" d="M116.824 56.7697c-.667 2.9438-2.443 5.4864-4.012 8.0703-.826 1.3569-1.599 2.755-2.319 4.1709-1.056-1.7816-1.781-3.7461-1.982-5.7991-.324-3.4275.985-7.0969 3.77-9.1145 1.304-.938 2.832-1.4748 4.43-1.7167.413 1.4041.431 2.9674.113 4.3891z" fill="#5275A0"/><path d="M139.153 82.3784c-.182 1.1268-.519 2.2123-1.003 3.2564-1.716 3.7166-5.321 6.9023-10.719 9.498 0 0-.301-5.8758-.366-7.4509-.265-6.737-7.575-10.4595-12.2-15.3737-2.354-2.5072-4.142-5.6692-4.472-9.0968-.325-3.4275.985-7.0969 3.77-9.1144 2.336-1.6873 5.392-2.053 8.271-1.8347 4.637.3716 9.315 2.3125 12.2 5.9347.124.1357.23.2832.337.4248 1.764 2.4128 2.672 5.3507 3.339 8.2767 1.156 5.0676 1.675 10.3416.843 15.4799z" fill="#00AD9F"/><path d="M116.157 57.7074c5.062 2.6193 10.129 5.7813 13.073 10.6542 4.112 6.8019 3.216 15.651.048 22.9366" stroke="#00AD9F" stroke-miterlimit="10" stroke-linecap="round" stroke-linejoin="round"/><path d="M223.812 125.827c3.227-5.309 1.576-12.141 2.702-18.247.862-4.696 3.475-9.0492 7.216-12.0225 2.348-1.8642 5.645-3.1975 8.294-1.7993.573.3009 1.257.7315 1.812.3893.33-.2005.46-.6135.542-.991.673-3.2978-.914-6.9023.384-10.0112.696-1.6754 2.141-2.9261 3.669-3.8995 2.95-1.8819 6.401-2.9614 9.894-3.103.926-.0354 1.894 0 2.725.4129 1.499.7492 2.183 2.6193 1.983 4.2829-.201 1.6637-1.121 3.1562-2.136 4.4894-3.386 4.4304-8.348 8.2532-9.003 13.7868-.082.6961-.082 1.4392.236 2.0652.313.607.891 1.038 1.216 1.634 1.044 1.917-.974 4.094-2.938 5.032-1.8.861-3.747 1.398-5.735 1.587-1.368.13-2.908.159-3.84 1.168-1.717 1.864.253 4.843-.107 7.35-.224 1.564-1.356 2.826-2.501 3.923-2.118 2.036-4.431 3.859-6.902 5.446-2.006 1.286-4.124 2.418-5.9 3.999-1.776 1.581-3.209 3.723-3.327 6.1" fill="#52D2BC"/><path d="M228.06 120.659c.525-2.572 1.723-4.955 2.909-7.297 1.852-3.664 3.74-7.38 6.536-10.383 2.124-2.283 4.714-4.0884 6.873-6.336 1.54-1.6047 2.85-3.4217 3.882-5.392.561-1.0678 1.044-2.1887 1.794-3.1267.896-1.115 2.118-1.9114 3.185-2.8671 1.44-1.286 2.596-2.8847 3.375-4.6545" stroke="#00AD9F" stroke-miterlimit="10" stroke-linecap="round" stroke-linejoin="round"/><path d="M270.13 129.508c-.726 2.797-1.805 5.563-3.658 7.781-1.28 1.528-2.873 2.738-4.613 3.723-.897.513-1.841.962-2.791 1.363-3.693 1.551-7.663 2.43-11.663 2.584-5.829.218-11.823-1.068-17.416.595-2.566.761-4.932 2.148-6.873 3.982-1.215 1.139-2.259 2.455-3.085 3.9l.761-4.837c1.41-5.204 2.849-10.501 5.728-15.062 1.859-2.955 4.272-5.527 6.838-7.893 4.1-3.787 8.649-7.12 13.669-9.557 4.059-1.97 8.566-3.356 13.05-2.808 4.478.543 8.879 3.375 10.277 7.663.897 2.755.508 5.764-.224 8.566z" fill="#5193F4"/><path d="M224.603 144.917c4.283-6.336 10.696-11.208 17.952-13.627 4.519-1.51 9.304-2.083 13.882-3.404 4.578-1.322 9.15-3.563 11.835-7.504" stroke="#0B43A4" stroke-miterlimit="10" stroke-linecap="round" stroke-linejoin="round"/><path d="M227.423 191.386c.254-6.507 3.616-12.512 7.705-17.585 3.404-4.23 7.516-8.1 12.595-10.029 1.593-.602 3.339-1.009 4.991-.602 1.652.407 3.151 1.817 3.18 3.522.024 1.433-.938 2.69-1.953 3.705-3.339 3.345-7.651 5.486-11.698 7.928-6.95 4.201-13.558 9.805-16.313 17.445" fill="#52D2BC"/><path d="M229.995 185.694c4.248-9.475 15.245-17.946 22.495-19.002" stroke="#00AD9F" stroke-miterlimit="10" stroke-linecap="round" stroke-linejoin="round"/><path d="M224.768 196.56c-.059-1.091 3.499-3.941 4.301-4.666 4.442-4.029 9.716-6.991 15.292-8.737 2.253-.708 4.654-1.221 6.908-.679 2.26.543 4.33 2.396 4.549 4.826.212 2.36-1.369 4.672-3.393 5.811-2.023 1.144-4.383 1.316-6.637 1.186-3.48-.201-6.902-1.068-10.395-1.044-3.498.029-8.407.383-10.625 3.303z" fill="#00AD9F"/><path d="M228.39 193.251c7.145-3.87 17.947-6.389 25.793-5.44" stroke="#00AD9F" stroke-miterlimit="10" stroke-linecap="round" stroke-linejoin="round"/><path opacity=".2" d="M139.153 82.3784c-.183 1.1268-.519 2.2123-1.003 3.2565-2.507-5.3153-4.713-12.253-5.244-20.7716-.142-2.3067.501-4.6782 1.728-6.6663.124.1357.23.2832.337.4248 1.763 2.4128 2.672 5.3507 3.339 8.2768 1.156 5.0675 1.675 10.3415.843 15.4798z" fill="#5275A0"/><path d="M163.867 82.0776c5.333-1.8937 10.879-3.4039 15.728-6.33 1.469-.8849 2.879-1.9114 3.923-3.2682 1.039-1.3569 1.682-3.0913 1.452-4.7903-.236-1.7226-1.34-3.3744-.968-5.0793.248-1.1209 1.086-1.994 1.729-2.9497 1.528-2.2594 1.982-5.215 1.209-7.8343-.838-2.8081-2.944-5.0616-4.142-7.7341-.979-2.1886-1.327-4.6486-.997-7.0202-4.477.059-8.56 2.5073-12.961 3.3214-3.369.6253-6.867.2831-10.206 1.05-6.083 1.3982-11.062 6.7548-12.006 12.9255-2.82-.4837-5.858.5309-7.823 2.6193-2.082 2.2182-3.256 5.3743-3.067 8.4125 1.374 22.0812 14.017 33.5967 14.017 33.5967s12.076-16.1937 14.112-16.9193z" fill="#7EE8D4"/><path d="M151.932 81.9242c-.555-5.4451 1.351-10.8312 3.534-15.8516 2.129-4.8905 4.584-9.6867 7.876-13.887 3.291-4.2003 7.474-7.7989 12.412-9.8283M156.681 45.7021c-.561 4.8552-.165 10.7074 1.097 15.4268M158.687 59.3887c5.545-3.5573 14.076-5.7164 20.654-5.3389M145.124 60.2972c6.678 2.814 6.949 12.6305 7.132 15.4209M154.073 69.4766c5.109-3.6635 12.49-4.7667 17.923-3.398M168.014 43.1774c-1.534 1.8937-1.917 4.1472-1.764 5.7105M167.701 47.5016c2.354-1.2035 5.505-1.4808 8.873-.6372" stroke="#00AD9F" stroke-miterlimit="10" stroke-linecap="round" stroke-linejoin="round"/><path d="M36.3414 58.1852c.6253-.0354 4.9084-3.2033 6.5544-4.2711.4661-.3008.9321-.6135 1.2566-1.0619.3245-.4483.4779-1.0618.2419-1.5633-.295-.6194-.7788-1.2389-2-1.2389-2.1297.0059-2.8731.708-3.9114 1.7758-3.4276 3.5455-2.1415 6.3594-2.1415 6.3594zM55.5328 70.9691c1.8643.8377 3.8524 1.6695 5.8819 1.4099.7846-.1003 1.646-.4602 1.9055-1.2035.2242-.6371-.0825-1.3745-.5899-1.8229-.5074-.4483-1.174-.6666-1.8348-.8259-2.4778-.6076-5.9645-.2713-8.4187.4248-.0059 0 1.941 1.5161 3.056 2.0176zM67.8039 43.4428c-.8318-.525-1.7522-1.227-1.7463-2.2122 0-.9852 1.0266-1.7344 2.0118-1.7403.9852-.0059 1.8997.5309 2.643 1.1857 3.1327 2.755 2.7433 5.8935 2.7433 5.8935s-4.7255-2.5426-5.6518-3.1267zM70.2758 35.048c-.7316-.3126-1.4808-.6902-1.9115-1.3627-.2065-.3245-.3245-.7374-.2006-1.1032.2124-.6076.5959-1.1563 2.1357-.879 4.8671.8849 5.929 4.218 5.929 4.218s-4.6606-.3185-5.9526-.8731zM84.535 42.4222c1.9528-.1711 3.9705-1.1386 5.1976-2.6666.466-.5781.8908-1.2093 1.0442-1.9349.1534-.7257-.0118-1.5516-.5723-2.0353-.6843-.5899-1.7698-.4956-2.5191 0-.7551.4955-1.2389 1.3096-1.6283 2.1179-.5191 1.0854-1.5221 4.5189-1.5221 4.5189z" fill="#4A49CA"/><path d="M49.6745 113.604c-4.7256-4.165-9.4571-8.336-14.1826-12.501-2.5191-2.2182-5.0914-4.5071-6.6842-7.4627-3.4277-6.3536-1.4513-14.6067 3.1798-20.1462 4.6312-5.5395 11.4157-8.8077 18.2356-11.1852 6.814-2.3774 13.9113-4.0469 20.4067-7.1972 4.0766-1.9762 8.1709-4.9141 9.2918-9.3032.6726-2.637.1062-5.569-1.4985-7.7636-1.6047-2.2004-4.2241-3.628-6.9438-3.7873M87.8389 37.8915c-1.292 3.9643-6.3244 6.3772-8.6193 9.8165" stroke="#0B43A4" stroke-miterlimit="10" stroke-linecap="round" stroke-linejoin="round"/><path d="M69.7743 42.4517c.9911 1.0441 2.1769 1.9113 3.0442 3.0617 1.8288 2.4364 1.9763 6.3949-.7257 8.849M44.3176 64.6569c4.171 3.2151 9.6517 5.3566 14.9142 5.5572M34.7721 70.5089c-1.9233-5.6633.1711-12.4476 4.9498-16.0403" stroke="#0B43A4" stroke-miterlimit="10" stroke-linecap="round" stroke-linejoin="round"/><path d="M187.223 46.5812c-.224-.7021-.212-1.5634.301-2.0884.413-.413 1.097-.6017 1.634-.3658 4.148 1.8229 3.699 8.2945 3.699 8.2945s-3.929-.5663-5.634-5.8403zM187.123 58.7043c-2.684 4.8493 6.849 4.4776 10.289 1.6223 0 0-7.976-5.799-10.289-1.6223zM199.182 46.9528c-.649-.8849-.879-2.2063-.171-3.0499.525-.6254 1.439-.82 2.241-.6667.803.1534 2.006.8967 2.52 1.5339 3.138 3.9053 1.663 7.7222 1.663 7.7222s-5.197-4.0882-6.253-5.5395zM237.045 58.958c-.23-.7551-.177-1.6754.407-2.2063.372-.3363.897-.4543 1.393-.4189.495.0354.973.2183 1.427.4248.974.4424 1.729 1.2211 2.195 2.1827 1.18 2.4306.377 5.4333.377 5.4333s-5.221-3.5337-5.799-5.4156zM225.134 67.8541c-1.687-1.4807-4.265-1.9172-6.324-1.0146-.525.23-1.021.5545-1.351 1.0146-.756 1.0442-.49 2.5663.295 3.5868.778 1.0206 1.964 1.6401 3.138 2.171 2.124.9616 5.416 1.1563 7.676 1.7344-.006-.0059-.012-4.4894-3.434-7.4922z" fill="#4A49CA"/><path d="M190.197 47.6254c1.404 4.5897 5.374 8.0585 9.793 9.9286 4.419 1.8759 9.286 2.3715 14.082 2.6783 4.791.3126 9.64.466 14.271 1.7226 4.514 1.227 9.015 3.7755 10.95 8.0349 2.36 5.1855.271 11.3798-3.044 16.0167-3.31 4.6309-7.77 8.3652-10.973 13.0729-1.469 2.1596-2.702 4.6956-2.402 7.2916.396 3.463 3.316 6.011 6.024 8.206M201.241 45.9381c3.174 3.5101 5.71 9.0024 6.33 13.6983" stroke="#0B43A4" stroke-miterlimit="10" stroke-linecap="round" stroke-linejoin="round"/><path d="M190.562 59.5066c1.817.4837 3.658.9675 5.534.9734 1.876.0059 4.053-1.0383 5.404-2.3421M240.154 59.2411c1.699 1.64 2.738 3.9584 2.826 6.3182.089 2.3656-1.221 5.2268-2.796 6.9907M222.355 69.9662c3.398 3.1266 6.354 5.6575 10.13 8.3122 1.722 1.2152 5.144 2.7667 6.666 2.3656" stroke="#0B43A4" stroke-miterlimit="10" stroke-linecap="round" stroke-linejoin="round"/><path opacity=".2" d="M261.861 141.012c-.897.513-1.841.962-2.791 1.363-3.693 1.551-7.663 2.43-11.663 2.584-5.829.218-11.823-1.068-17.416.596-2.566.761-4.932 2.147-6.873 3.982-.194.094-.389.2-.584.312-.466-3.946 9.375-9.091 12.366-10.43 5.398-2.419 11.415-3.492 17.315-3.02 2.584.206 5.233.714 7.363 2.182.914.632 1.716 1.475 2.283 2.431z" fill="#5275A0"/><path d="M252.207 138.758c2.584.207 5.233.714 7.363 2.183 2.129 1.469 3.634 4.094 3.138 6.637-.578 2.961-3.64 4.89-6.637 5.25-2.997.366-5.988-.46-8.944-1.067-6.542-1.345-13.291-1.658-19.928-.909-1.658.183-3.227.513-4.673 1.363-.466-3.947 9.381-9.091 12.372-10.43 5.398-2.425 11.415-3.499 17.309-3.027z" fill="#52D2BC"/><path d="M225.087 149.725c4.885-4.294 17.433-7.209 26.306-6.271 2.672.284 5.369 1.08 7.422 2.814" stroke="#00AD9F" stroke-miterlimit="10" stroke-linecap="round" stroke-linejoin="round"/><path d="M215.96 101.469l47.722-.101c5.598-.011 10.147 4.519 10.159 10.118.012 5.598-4.519 10.147-10.118 10.158l-32.642.065M71.5737 136.505l-33.3739.071c-3.1622.006-5.7167 2.572-5.7108 5.734.0059 3.162 2.5722 5.716 5.7344 5.71l9.7284-.017" stroke="#0B43A4" stroke-miterlimit="10" stroke-linecap="round" stroke-linejoin="round" stroke-dasharray="4 4"/><path d="M18.3064 162.344c-11.43343.024-11.66941 17.079 2.8731 17.043 14.5483-.029 205.3825-.425 214.3785-.442 8.997-.018 9.947-14.058-1.174-14.035-22.141.047-22.872-10.512-10.583-10.536" stroke="#C8DBFB" stroke-miterlimit="10" stroke-linecap="round" stroke-linejoin="round" stroke-dasharray="4 4"/><path d="M20.9789 161.872c.2596 1.54-.7728 2.997-2.3126 3.262-1.5398.26-2.997-.772-3.2625-2.312-.2595-1.54.7729-2.997 2.3127-3.263 1.5398-.259 3.0029.773 3.2624 2.313z" fill="#5193F4"/><path d="M229.287 154.451c.26 1.539-.773 2.997-2.312 3.262-1.54.26-2.997-.773-3.263-2.312-.26-1.54.773-2.997 2.313-3.263 1.539-.259 2.997.779 3.262 2.313z" fill="#0B43A4"/><path opacity=".2" d="M232.361 203.757l-177.5126.366c-2.3657.006-4.2949-1.911-4.2949-4.277l-.2418-117.5915c-.0059-2.3657 1.9114-4.2947 4.2772-4.2947l177.5121-.3658c2.366-.0059 4.295 1.9114 4.295 4.277l.242 117.592c.006 2.365-1.905 4.288-4.277 4.294z" fill="#5275A0"/><path d="M228.886 201.511l-177.5124.366c-2.3657.006-4.2949-1.912-4.2949-4.277l-.2419-117.592c-.0059-2.3656 1.9115-4.2947 4.2772-4.2947l177.512-.3658c2.366-.0059 4.295 1.9114 4.295 4.2771l.242 117.5914c.006 2.366-1.911 4.289-4.277 4.295z" fill="#fff"/><path d="M228.338 75.3406l-176.7517.3657c-2.5781.0059-4.6606 2.1002-4.6606 4.6782l.0059 4.0588 186.0904-.3835-.006-4.0587c-.006-2.578-2.1-4.6664-4.678-4.6605z" fill="#0056EC"/><path d="M51.7983 201.876l26.7074-.054-.2418-117.4436-31.374.0649.2301 112.7837c.0059 2.572 2.1002 4.654 4.6783 4.649z" fill="#C8DBFB"/><path d="M228.679 76.5204c1.711 0 3.104 1.3923 3.109 3.1031l.242 117.5915c0 .832-.318 1.611-.908 2.2-.584.59-1.363.915-2.195.915l-177.5183.366c-1.7109 0-3.1032-1.393-3.1091-3.103l-.2419-117.5919c0-.8319.3186-1.6106.9086-2.2005.584-.5899 1.3628-.9144 2.1946-.9144l177.5071-.3658h.011zm0-1.1798h-.011l-177.513.3657c-2.3657.0059-4.2831 1.9291-4.2772 4.2948l.2419 117.5919c.0059 2.365 1.9233 4.277 4.289 4.277h.0118l177.5125-.366c2.366-.006 4.283-1.929 4.277-4.295l-.242-117.5914c-.006-2.3656-1.923-4.277-4.289-4.277z" fill="#0056EC"/><path d="M73.9985 192.897l-20.5836.041c-.9085 0-1.646-.732-1.646-1.64v-.206c0-.909.7316-1.646 1.6401-1.646l20.5836-.042c.9086 0 1.646.732 1.646 1.64v.207c.0059.908-.7315 1.646-1.6401 1.646zM71.5266 113.22l-17.5217.036c-1.6637.006-3.0147-1.345-3.0206-3.009l-.0354-17.5211c-.0059-1.6636 1.3451-3.0145 3.0088-3.0204l17.5217-.0354c1.6637-.0059 3.0147 1.345 3.0206 3.0086l.0354 17.5213c0 1.669-1.3451 3.02-3.0088 3.02z" fill="#fff"/><path d="M146.54 165.707l-61.0491.124c-1.1858 0-2.1475-.956-2.1534-2.142v-.265c0-1.186.9558-2.148 2.1416-2.154l61.0489-.124c1.186 0 2.147.956 2.153 2.142v.265c0 1.192-.955 2.154-2.141 2.154zM143.012 96.1535l-48.2411.1002c-1.1858 0-2.1474-.9557-2.1533-2.1414v-.2655c0-1.1858.9557-2.1474 2.1415-2.1533L143 91.5933c1.186 0 2.147.9557 2.153 2.1414v.2655c0 1.1917-.955 2.1533-2.141 2.1533zM219.276 144.947l-64.323.136c-1.186 0-2.148-.956-2.154-2.142v-.265c0-1.186.956-2.148 2.142-2.154l64.323-.129c1.186 0 2.147.955 2.153 2.141v.266c0 1.179-.956 2.141-2.141 2.147zM146.557 175.14l-61.0484.124c-1.1858 0-2.1475-.956-2.1534-2.142v-.265c0-1.186.9558-2.148 2.1416-2.154l61.0492-.123c1.185 0 2.147.955 2.153 2.141v.266c.006 1.185-.956 2.147-2.142 2.153zM146.575 184.567l-61.0487.124c-1.1858 0-2.1475-.956-2.1534-2.142v-.265c0-1.186.9558-2.148 2.1416-2.153l61.0485-.124c1.186 0 2.148.955 2.154 2.141v.266c.006 1.185-.956 2.153-2.142 2.153zM217.966 190.714l-61.527.13c-1.959.006-3.551-1.581-3.551-3.54l-.054-26.423c-.005-1.959 1.582-3.551 3.54-3.551l61.527-.13c1.959-.006 3.552 1.581 3.552 3.539l.053 26.424c.006 1.958-1.581 3.551-3.54 3.551zM57.1315 79.9774c0 .8318-.6725 1.5044-1.4984 1.5044-.826 0-1.5044-.6726-1.5044-1.4985 0-.8318.6725-1.5043 1.4985-1.5043.8259 0 1.5043.6725 1.5043 1.4984zM61.9988 81.476c.8308 0 1.5044-.6736 1.5044-1.5044s-.6736-1.5043-1.5044-1.5043c-.8309 0-1.5044.6735-1.5044 1.5043s.6735 1.5044 1.5044 1.5044zM69.8687 79.9539c0 .8318-.6725 1.5044-1.4985 1.5044-.8259 0-1.5044-.6726-1.5044-1.4985 0-.8318.6726-1.5043 1.4985-1.5043.826-.0059 1.4985.6666 1.5044 1.4984zM90.2564 94.4336c.2394-2.3892-1.5034-4.5202-3.8928-4.7596-2.3893-.2394-4.5203 1.5034-4.7597 3.8926-.2394 2.3893 1.5034 4.5202 3.8928 4.7596 2.3893.2394 4.5203-1.5034 4.7597-3.8926z" fill="#C8DBFB"/><path d="M72.7478 116.895l-19.2621.042c-.4484 0-.8083-.36-.8142-.808v-.101c0-.448.3599-.808.8083-.814l19.2621-.041c.4484 0 .8082.36.8141.808v.1c0 .449-.3598.814-.8082.814zM72.7537 120.577l-19.2622.041c-.4484 0-.8082-.36-.8141-.808v-.1c0-.449.3598-.809.8082-.815l19.2622-.041c.4483 0 .8082.36.8141.808v.101c0 .448-.3599.808-.8082.814z" fill="#fff"/><path d="M94.8063 128.352l-5.4453.053.0413 22.819-4.702.012c-1.6578.006-3.0029-1.34-3.0088-2.997l-.0885-42.198c-.0059-1.676 1.351-3.038 3.0265-3.038l10.1178-.024.059 25.373z" fill="#C8DBFB"/><path d="M130.139 102.908v.59c1.628 0 2.956 1.322 2.956 2.95l.082 41.142c0 .79-.307 1.534-.861 2.094-.555.561-1.298.867-2.089.873l-44.9957.095c-1.6283 0-2.9557-1.322-2.9557-2.95l-.0826-41.142c0-.791.3068-1.534.8613-2.094.5546-.561 1.2979-.868 2.0885-.873l44.9902-.095.006-.59zm0 0h-.006l-44.9902.095c-1.9587.006-3.5457 1.592-3.5398 3.551l.0826 41.142c.0059 1.959 1.5929 3.54 3.5457 3.54h.0059l44.9898-.095c1.959-.006 3.546-1.593 3.54-3.551l-.082-41.142c0-1.959-1.587-3.546-3.546-3.54zM205.264 136.764l-60.01-13.562c-1.912-.431-3.109-2.33-2.679-4.242l6.749-29.8681c.431-1.9114 2.331-3.109 4.242-2.6783l60.011 13.5626c1.911.4308 3.109 2.3298 2.678 4.2418l-6.749 29.868c-.431 1.912-2.33 3.115-4.242 2.678z" fill="#C8DBFB"/><path d="M89.1251 217.998l-8.3951.018-2.059-10.695 12.4658-.024-2.0117 10.701z" fill="#0056EC"/><path d="M80.9954 207.315c0 .873-.1651 2.336.4189 2.359.5841.024.3422-1.392 1.0029-1.351.4248.024-.1946 4.649 1.4041 4.761 1.0974.077.8968-2.265 1.0089-3.734.0767-.991 1.3451-.797 1.3569-.142.0118.738-.0354 1.227 0 2.065.059 1.398 2.2064 1.027 2.1297-.838-.0767-1.864-.0059-3.126-.0059-3.126l-7.3155.006z" fill="#C8DBFB"/><path d="M78.9896 213.775c-.1711 0-.3363-.018-.4956-.053-.6195-.136-1.0501-.461-1.292-.968-.8555-1.817 1.3982-5.215 1.4867-5.368l.118.613c-.0177.036-1.9823 2.956-1.2094 4.59.1828.389.5073.631.997.737.1357.03.2773.042.4189.042 3.0264-.006 8.1945-5.64 8.2535-5.705.2124-.254.6076-.012.466.201-.2418.271-5.4925 5.905-8.7431 5.911z" fill="#0C2340"/><path opacity=".2" d="M167.224 67.4884c-11.935-.4542-28.366 8.3712-22.537 29.951-.124 1.8229.968 3.1266 2.13 2.7726 1.162-.3539.136-3.8168.136-3.8168 1.988-16.0462 5.705-18.8189 12.011-18.7599l14.802-.0295c3.658.5368 10.307 3.0972 11.304 15.94l3.687.6784c.289-9.2796-1.953-25.9866-21.533-26.7358z" fill="#5275A0"/><path d="M167.224 65.6066c-11.935-.4543-28.366 8.3712-22.537 29.951l2.266-1.0442c1.988-16.0462 5.705-18.8189 12.011-18.7599l14.802-.0295c3.658.5368 10.484 3.7873 11.481 16.6302l3.504-.0059c.295-9.2856-1.947-25.9925-21.527-26.7417z" fill="#EF832B"/><path d="M164.781 65.9606l-1.77 3.8935s.213 2.1946 2.366 2.1474c2.153-.0472 2.443-1.0383 2.443-1.0383l.283-4.4717-3.322-.5309z" fill="#FFB9A3"/><path d="M173.896 62.7101c-2.018 3.5691-2.914 4.6841-5.557 5.2209-3.422.6961-7.257-1.6105-5.475-7.2975 1.451-4.6369 3.658-3.923 5.811-3.7461 2.153.1711 7.404 1.9645 5.221 5.8227z" fill="#FFB9A3"/><path d="M165.861 59.8901c-.537-.2772-1.227-.0413-1.646.3953-.431.4542-.637 1.1268-.454 1.7226-.826.0118-1.552.82-1.475 1.6459-.567-1.3155-.26-2.6901-.372-4.041-.112-1.351.035-2.814.909-3.8464.359-.4248.82-.7492 1.309-1.0088 1.859-.9911 4.201-1.0206 6.089-.0885.389.1947 1.368.8082 2.737.4779 2.608-.6313 4.13 1.1326 2.566 2.7844.502.1829 1.056.4071 1.281.8908.059.1239.088.2773.011.3894-.053.0767-.147.118-.241.1475-.437.1475-.915.1829-1.375.1062.177.1475 1.144.2064 1.434.7728.778 1.4984-2.301.7433-2.773.5899.537.1003 1.941 1.2212 1.492 1.994-.088.1534-1.988 1.2566-3.982-1.0619-.466-.5368-1.044-1.0383-1.728-1.2211-.537-.1416-1.104.053-1.629.2536-.383.1416-1.357.7374-1.634.3835-.289-.3776.106-.9734-.519-1.2861z" fill="#0C2340"/><path d="M185.63 92.3483c-.531 1.8229-1.062 1.9999-.424 2.289.643.2891 1.162-.7315 1.162-.7315l2.961.5899s-.666-1.9232-1.132-2.1533c-.466-.23-2.567.0059-2.567.0059zM146.953 94.5133c.389.9616.495.9675 1.032 2.1238 1.033 2.2063-1.38 5.6929-2.879 1.8878-.413-1.0442-.419-2.9615-.419-2.9615l2.266-1.0501z" fill="#FFB9A3"/><path d="M170.079 54.9819c2.024.1121 4.513-1.3156 6.1.5132.148.1711.443-.0531.313-.2419-1.516-2.1768-4.33-.5545-6.407-.6135-.224 0-.218.3304-.006.3422zM170.893 53.8669c-1.38.2419-2.714-.4129-4.1-.1947-1.127.177-2.13.7552-2.979 1.4926-.219.1888.065.5604.312.4011 1.192-.7846 2.337-1.463 3.823-1.3509 1.08.0767 1.994.4011 3.068.0767.271-.0826.153-.472-.124-.4248zM163.023 55.7547c-.973.6076-1.534 1.4158-1.652 2.578-.082.8377-.106 2.755.738 3.2269.2.1121.413-.1533.248-.3244-.543-.5487-.59-2.0294-.549-2.7255.059-1.0678.507-1.8819 1.357-2.519.135-.1003.012-.3304-.142-.236zM177.99 59.076c-.501-.8672-1.781-1.6341-2.767-1.0855-.153.0885-.082.3245.089.3245.431.0059.826-.0472 1.245.0826.478.1475.879.4247 1.162.8318.118.1652.372.0236.271-.1534z" fill="#0C2340"/><path d="M112.34 149.071c6.259 2.3 11.693 9.474 10.442 14.695-1.41 5.893-5.475 8.436-5.475 8.436l-1.28-2.366s3.251-5.079 2.968-7.48c-.455-3.841-5.304-6.413-5.304-6.413l-1.351-6.872z" fill="#0B43A4"/><path d="M96.936 215.568s-3.8406 1.551-4.8022 2.43l7.6104-.017-.0059-2.419-2.8023.006zM113.756 215.42s1.091 1.263 1.292 2.531l-5.192.012c.089-.873.46-1.717.968-2.537l2.932-.006z" fill="#0C2340"/><path d="M114.074 215.532l-3.545.006c.07-4.176-.791-18.412-1.623-29.054-.489-6.241-.973-11.256-1.256-12.271l1.899-.418 7.168-1.593c1.227 5.604-1.604 31.337-2.643 43.33z" fill="#047F76"/><path d="M101.042 173.989c-2.7667 4.354-3.4805 35.833-4.6368 41.667l3.3627.189S103.632 196 111.856 173.688l-10.814.301z" fill="#009790"/><path opacity=".2" d="M113.272 173.688c-1.622 4.407-3.08 8.72-4.366 12.796-.489-6.241-.973-11.256-1.256-12.27l1.899-.419 3.723-.107z" fill="#5275A0"/><path d="M101.042 173.989c-2.7667 4.354-3.4805 35.833-4.6368 41.667l3.3627.189S103.632 196 111.856 173.688l-10.814.301z" fill="#009790"/><path d="M103.154 138.847s-2.153 8.2 3.227 8.194l-.318 2.094 4.082.449-.885-2.92s.809-5.156.862-6.089c.1-1.74-4.773-4.802-6.968-1.728z" fill="#FFB9A3"/><path d="M89.856 129.654l-1.587.004.0133 6.695 1.587-.003-.0133-6.696z" fill="#0C2340"/><path d="M93.6087 129.644l-9.0972.018c-.6371 0-1.1563-.514-1.1563-1.151v-.236c0-.637.5133-1.156 1.1505-1.156l9.0971-.018c.6372 0 1.1563.514 1.1563 1.151v.236c.0059.637-.5132 1.156-1.1504 1.156z" fill="#0056EC"/><path d="M87.8448 138.098c-.0413-1.516-1.2979-1.121-.6076-3.599.4247-1.534 3.5928.248 3.1975 1.31-.3952 1.062-.8495 2.743-.8495 2.743l-1.7404-.454z" fill="#FFB9A3"/><path d="M106.417 148.657c-8.0414.531-8.5723 3.245-12.1711 2.82-5.3273-.625-4.3952-10.518-3.7344-14.064l-3.1799.006s-5.7344 22.53 12.3773 18.365c-.6961 3.947 3.8111 10.395-.5604 18.217 6.8725 1.87 13.2915 2.324 18.7845-.035-.962-1.298 1.97-14.389-3.77-23.81-1.121-1.847-7.156-1.54-7.746-1.499z" fill="#0056EC"/><path d="M106.417 148.657c-8.0414.531-8.5723 3.245-12.1711 2.82-5.3273-.625-4.3952-10.518-3.7344-14.064l-3.1799.006s-5.7344 22.53 12.3773 18.365c-.6961 3.947 3.8111 10.395-.5604 18.217 6.8725 1.87 13.2915 2.324 18.7845-.035-.962-1.298 1.97-14.389-3.77-23.81-1.121-1.847-7.156-1.54-7.746-1.499z" fill="#0056EC"/><path d="M105.308 140.422c.525.136 1.132.236 1.416.679.182.289.171.648.153.985.094-.354.49-.608.861-.561.378.042.696.378.702.744.006.171-.053.336-.118.495-.159.401-.36.779-.596 1.139.655.242 1.21 2.165 1.534 2.761 1.104-.278 3.564-1.227 3.776-5.139.1-1.823-.454-4.005-2.431-5.215-1.398-.855-3.71-.867-5.309-.46-1.298.33-3.363 1.628-2.401 3.139.483.761 1.545 1.209 2.413 1.433z" fill="#EF832B"/><path d="M112.198 137.933c.749-.248 1.699-.118 2.148.507.348.49.318 1.127.43 1.711.053.283.154.566.372.761.26.23.637.289.991.306.867.048 1.741-.064 2.596.083.855.148 1.729.625 1.97 1.422.136.442.059.926.225 1.357.242.649.932 1.02 1.534 1.398 1.28.802 2.371 1.888 3.156 3.144.501.797.885 1.681.944 2.608.059.926.731 2.153.548 3.061-.194.986-1.162 2.319-3.073 2.932-3.304 1.062-4.354 1.522-7.522-.359-.384-.225-1.127-.997-1.475-1.275-.272-.218-.443-.531-.537-.855-.266-.909.041-1.888.513-2.714.472-.826 1.115-1.557 1.599-2.377.289-.496.525-1.044.501-1.611-.011-.212-.064-.43-.218-.584-.135-.13-.324-.195-.513-.23-.696-.136-1.463.006-2.089-.307-.613-.301-.949-1.044-.761-1.681.124-.425.449-.785.537-1.215.13-.626-.259-1.263-.802-1.628-.543-.366-1.209-.508-1.864-.614-.325-.053-.661-.106-.921-.295-.324-.23-.472-.637-.466-1.021.024-1.227 1.021-2.141 2.177-2.524z" fill="#EF832B"/><path d="M111.602 141.23c3.977.862-1.044 4.631 1.062 6.436.602.514 1.298.354 2 .449 2.702.371 1.221 2.206 1.039 3.646-.03.218.33.259.377.053.23-.991 1.139-2.207.673-3.263-.413-.932-1.44-.82-2.283-.849-1.056-.03-2.219 0-1.823-2.094.088-.466.46-.938.643-1.381.206-.507.348-1.009.236-1.563-.195-.938-.974-1.487-1.871-1.634-.129-.03-.188.171-.053.2zM103.408 136.357c3.068-1.557 6.124-1.244 8.714 1.039.177.153.413-.083.259-.26-2.271-2.56-6.312-3.008-9.056-.926-.088.071-.017.201.083.147z" fill="#EF832B"/><path d="M206.45 145.979l-1.327 2.679 3.244 1.327.348-3.08-2.265-.926z" fill="#FFB9A3"/><path d="M208.409 137.278c-7.369 3.209-4.348 10.984.135 10.07 2.183-.443 3.286-7.475 3.286-7.475l-3.421-2.595z" fill="#FFB9A3"/><path d="M210.857 136.174c-.242-.448-.472-.932-.873-1.25-.401-.319-1.033-.425-1.404-.077-.496.46-.207 1.322.295 1.776-.431.053-.944-.248-1.263.053-.242.224-.159.625-.017.926.324.702.855 1.316 1.51 1.729-.372.212-.808.625-.584.991.065.1.165.171.23.271.141.236.006.543-.142.779-.23.383-.484.755-.749 1.115.254-.348.873-.207 1.056.183.183.389.024.867-.265 1.185-.16.177-.36.325-.596.378-.201.047-1.098 2.808-.401 3.351.861.666 3.787.088 4.212-.667.425.46 1.044.808 1.658.685.613-.124 1.079-.879.749-1.41.661.241 1.469.029 1.923-.514.454-.542.519-1.374.159-1.982.36-.106.437-.596.343-.961-.189-.738-.791-1.363-1.528-1.57.371.006.666-.371.684-.743.018-.372-.177-.726-.413-1.015-.69-.855-1.51-1.079-2.531-1.209-1.026-.124-1.593-1.174-2.053-2.024z" fill="#4A49CA"/><path d="M203.954 215.06s-4.312 2.071-4.89 2.714c0 0 8.483.384 9.15-.018.667-.401-1.357-2.701-1.357-2.701l-2.903.005zM219.995 212.718s-3.787 2.921-4.224 3.67c0 0 8.944-1.327 8.944-1.912 0-.584-1.888-2.365-1.888-2.365l-2.832.607z" fill="#0C2340"/><path d="M208.119 175.081c-.159.879-6.064 24.181 10.832 38.157l4.891-1.121s-5.693-5.339-8.378-14.955c-2.536-9.091-.525-9.982.997-14.984 1.688-5.54.431-9.563.431-9.563l-8.773 2.466z" fill="#D8742A"/><path d="M200.049 175.01c-2.678 6.401-7.274 28.211 2.743 40.487l5.003-.012s-3.941-4.318-4.383-14.341c-.443-10.023 2.106-14.424 3.905-17.728 1.8-3.309 3.463-8.925 3.463-8.925l-10.731.519z" fill="#EF832B"/><path d="M196.521 135.337c-1.327 4.684-1.764 13.344 4.891 16.831l4.454-1.086s-8.035-4.212-6.313-14.854l-3.032-.891z" fill="#0B43A4"/><path d="M184.244 132.942l3.457-.425s-.419 14.524 16.36 15.751c12.808.932 13.811 24.966 13.811 24.966-4.13 2.779-11.056 3.622-19.935 2.985 0 0 .566-17.143-.844-21.839 0-.006-13.94-4.389-12.849-21.438z" fill="#0056EC"/><path d="M180.014 130.305c-.584.678 1.858 1.539 4.23 2.637l3.038-.372s.036-.608 0-1.239c-.035-.631-.354-.991-.714-.448-.36.543-1.893.725-2.619.23-.732-.502-3.351-1.487-3.935-.808zM196.521 135.337c-1.115-1.092-.814-1.027-.814-1.027l3.392.767s.744-1.658 1.381-1.699c.631-.047-.478 1.139-.225 1.581.254.443-.696 1.275-.696 1.275l-3.038-.897z" fill="#FFB9A3"/><path d="M212.763 137.773c.696.177 1.404.248 1.982.726.572.472.832 1.28.419 1.935-.195.307.265.549.472.277.525-.69.383-1.634-.148-2.289-.613-.749-1.752-1.062-2.684-.961-.165.017-.224.265-.041.312zM215.83 144.068c.46.271.844.708.649 1.28-.183.525-.714.838-1.144 1.139-.207.147-.03.46.2.342.637-.337 1.31-.808 1.41-1.587.089-.679-.365-1.192-.932-1.499-.206-.106-.383.201-.183.325zM208.084 147.584c1.563.973 3.776.814 5.068-.555.159-.171-.059-.489-.26-.336-1.416 1.05-3.02 1.386-4.678.673-.148-.065-.272.129-.13.218z" fill="#4A49CA"/><path d="M216.037 138.8c.897.855 0 2.023-.578 2.755-.13.159.07.377.23.23.513-.478 1.026-1.009 1.097-1.741.053-.554-.177-1.079-.667-1.35-.064-.036-.141.053-.082.106z" fill="#4A49CA"/><path d="M116.24 31.0305l-1.381-3.3803 13.351-5.0734-11.97 8.4537z" fill="#0B43A4"/><path d="M116.912 28.9422l11.298-6.3654-7.864 7.9877-3.434-1.6223zM111.803 26.2698l16.407-3.693-13.351 5.0734-3.056-1.3804z" fill="#5193F4"/><path d="M116.912 28.9421l-.672 2.0884 2.041-1.4394-1.369-.649z" fill="#0056EC"/><path d="M114.67 30.5763c-3.487-.59-8.218 2.9379-6.183 6.6072.691 1.2507 4.266.708 4-.6725-.13-.6607-.938-.9439-1.604-.8672-3.894.4484-4.053 3.7107-3.876 4.5425.89 4.2947 7.474 2.8435 9.687 2.2359" stroke="#C8DBFB" stroke-miterlimit="10" stroke-linecap="round" stroke-linejoin="round" stroke-dasharray="4 4"/></g><defs><clipPath id="clip0"><path fill="#fff" d="M0 0h280v239H0z"/></clipPath></defs></svg>